<?xml version="1.0" encoding="utf-8"?>
<!-- Generator: Adobe Illustrator 19.0.0, SVG Export Plug-In . SVG Version: 6.00 Build 0)  -->
<svg version="1.1" id="Ebene_1" xmlns="http://www.w3.org/2000/svg" xmlns:xlink="http://www.w3.org/1999/xlink" x="0px" y="0px"
	 viewBox="0 0 128 128" style="enable-background:new 0 0 128 128;" xml:space="preserve">
<style type="text/css">
	.st0{fill:#FFFFFF;}
</style>
<rect id="XMLID_1_" y="0" width="6" height="6"/>
<rect id="XMLID_2_" x="5.8" y="0" class="st0" width="6" height="6"/>
<rect id="XMLID_3_" x="11.7" y="0" width="6" height="6"/>
<rect id="XMLID_5_" x="17.7" y="0" class="st0" width="6" height="6"/>
<rect id="XMLID_4_" x="23.7" y="0" width="6" height="6"/>
<rect id="XMLID_10_" x="23.7" width="6" height="6"/>
<rect id="XMLID_9_" x="29.5" class="st0" width="6" height="6"/>
<rect id="XMLID_8_" x="35.4" width="6" height="6"/>
<rect id="XMLID_7_" x="41.4" class="st0" width="6" height="6"/>
<rect id="XMLID_6_" x="47.3" width="6" height="6"/>
<rect id="XMLID_20_" x="47.3" y="0" width="6" height="6"/>
<rect id="XMLID_19_" x="53.2" y="0" class="st0" width="6" height="6"/>
<rect id="XMLID_18_" x="59.1" y="0" width="6" height="6"/>
<rect id="XMLID_17_" x="65.1" y="0" class="st0" width="6" height="6"/>
<rect id="XMLID_16_" x="71" y="0" width="6" height="6"/>
<rect id="XMLID_15_" x="71" width="6" height="6"/>
<rect id="XMLID_14_" x="76.8" class="st0" width="6" height="6"/>
<rect id="XMLID_13_" x="82.8" width="6" height="6"/>
<rect id="XMLID_12_" x="88.8" class="st0" width="6" height="6"/>
<rect id="XMLID_11_" x="94.7" width="6" height="6"/>
<rect id="XMLID_28_" x="94.7" y="0" width="6" height="6"/>
<rect id="XMLID_27_" x="100.7" y="0" class="st0" width="6" height="6"/>
<rect id="XMLID_26_" x="106.6" y="0" width="6" height="6"/>
<rect id="XMLID_25_" x="106.6" width="6" height="6"/>
<rect id="XMLID_24_" x="112.4" class="st0" width="6" height="6"/>
<rect id="XMLID_23_" x="118.3" width="6" height="6"/>
<rect id="XMLID_22_" x="124.3" class="st0" width="6" height="6"/>
<rect id="XMLID_21_" x="130.3" width="6" height="6"/>
<rect id="XMLID_56_" x="-5.9" y="5.9" width="6" height="6"/>
<rect id="XMLID_55_" x="-0.1" y="5.9" class="st0" width="6" height="6"/>
<rect id="XMLID_54_" x="5.8" y="5.9" width="6" height="6"/>
<rect id="XMLID_53_" x="11.8" y="5.9" class="st0" width="6" height="6"/>
<rect id="XMLID_52_" x="17.7" y="5.9" width="6" height="6"/>
<rect id="XMLID_51_" x="17.8" y="5.9" width="6" height="6"/>
<rect id="XMLID_50_" x="23.6" y="5.9" class="st0" width="6" height="6"/>
<rect id="XMLID_49_" x="29.5" y="5.9" width="6" height="6"/>
<rect id="XMLID_48_" x="35.5" y="5.9" class="st0" width="6" height="6"/>
<rect id="XMLID_47_" x="41.4" y="5.9" width="6" height="6"/>
<rect id="XMLID_46_" x="41.4" y="5.9" width="6" height="6"/>
<rect id="XMLID_45_" x="47.3" y="5.9" class="st0" width="6" height="6"/>
<rect id="XMLID_44_" x="53.2" y="5.9" width="6" height="6"/>
<rect id="XMLID_43_" x="59.2" y="5.9" class="st0" width="6" height="6"/>
<rect id="XMLID_42_" x="65.1" y="5.9" width="6" height="6"/>
<rect id="XMLID_41_" x="65.1" y="5.9" width="6" height="6"/>
<rect id="XMLID_40_" x="70.9" y="5.9" class="st0" width="6" height="6"/>
<rect id="XMLID_39_" x="76.8" y="5.9" width="6" height="6"/>
<rect id="XMLID_38_" x="82.8" y="5.9" class="st0" width="6" height="6"/>
<rect id="XMLID_37_" x="88.8" y="5.9" width="6" height="6"/>
<rect id="XMLID_36_" x="88.8" y="5.9" width="6" height="6"/>
<rect id="XMLID_35_" x="94.8" y="5.9" class="st0" width="6" height="6"/>
<rect id="XMLID_34_" x="100.7" y="5.9" width="6" height="6"/>
<rect id="XMLID_33_" x="100.7" y="5.9" width="6" height="6"/>
<rect id="XMLID_32_" x="106.5" y="5.9" class="st0" width="6" height="6"/>
<rect id="XMLID_31_" x="112.4" y="5.9" width="6" height="6"/>
<rect id="XMLID_30_" x="118.4" y="5.9" class="st0" width="6" height="6"/>
<rect id="XMLID_29_" x="124.3" y="5.9" width="6" height="6"/>
<rect id="XMLID_112_" y="12" width="6" height="6"/>
<rect id="XMLID_111_" x="5.8" y="12" class="st0" width="6" height="6"/>
<rect id="XMLID_110_" x="11.7" y="12" width="6" height="6"/>
<rect id="XMLID_109_" x="17.7" y="12" class="st0" width="6" height="6"/>
<rect id="XMLID_108_" x="23.7" y="12" width="6" height="6"/>
<rect id="XMLID_107_" x="23.7" y="12" width="6" height="6"/>
<rect id="XMLID_106_" x="29.5" y="12" class="st0" width="6" height="6"/>
<rect id="XMLID_105_" x="35.4" y="12" width="6" height="6"/>
<rect id="XMLID_104_" x="41.4" y="12" class="st0" width="6" height="6"/>
<rect id="XMLID_103_" x="47.3" y="12" width="6" height="6"/>
<rect id="XMLID_102_" x="47.3" y="12" width="6" height="6"/>
<rect id="XMLID_101_" x="53.2" y="12" class="st0" width="6" height="6"/>
<rect id="XMLID_100_" x="59.1" y="12" width="6" height="6"/>
<rect id="XMLID_99_" x="65.1" y="12" class="st0" width="6" height="6"/>
<rect id="XMLID_98_" x="71" y="12" width="6" height="6"/>
<rect id="XMLID_97_" x="71" y="12" width="6" height="6"/>
<rect id="XMLID_96_" x="76.8" y="12" class="st0" width="6" height="6"/>
<rect id="XMLID_95_" x="82.8" y="12" width="6" height="6"/>
<rect id="XMLID_94_" x="88.8" y="12" class="st0" width="6" height="6"/>
<rect id="XMLID_93_" x="94.7" y="12" width="6" height="6"/>
<rect id="XMLID_92_" x="94.7" y="12" width="6" height="6"/>
<rect id="XMLID_91_" x="100.7" y="12" class="st0" width="6" height="6"/>
<rect id="XMLID_90_" x="106.6" y="12" width="6" height="6"/>
<rect id="XMLID_89_" x="106.6" y="12" width="6" height="6"/>
<rect id="XMLID_88_" x="112.4" y="12" class="st0" width="6" height="6"/>
<rect id="XMLID_87_" x="118.3" y="12" width="6" height="6"/>
<rect id="XMLID_86_" x="124.3" y="12" class="st0" width="6" height="6"/>
<rect id="XMLID_85_" x="130.3" y="12" width="6" height="6"/>
<rect id="XMLID_84_" x="-5.9" y="17.9" width="6" height="6"/>
<rect id="XMLID_83_" x="-0.1" y="17.9" class="st0" width="6" height="6"/>
<rect id="XMLID_82_" x="5.8" y="17.9" width="6" height="6"/>
<rect id="XMLID_81_" x="11.8" y="17.9" class="st0" width="6" height="6"/>
<rect id="XMLID_80_" x="17.7" y="17.9" width="6" height="6"/>
<rect id="XMLID_79_" x="17.8" y="17.9" width="6" height="6"/>
<rect id="XMLID_78_" x="23.6" y="17.9" class="st0" width="6" height="6"/>
<rect id="XMLID_77_" x="29.5" y="17.9" width="6" height="6"/>
<rect id="XMLID_76_" x="35.5" y="17.9" class="st0" width="6" height="6"/>
<rect id="XMLID_75_" x="41.4" y="17.9" width="6" height="6"/>
<rect id="XMLID_74_" x="41.4" y="17.9" width="6" height="6"/>
<rect id="XMLID_73_" x="47.3" y="17.9" class="st0" width="6" height="6"/>
<rect id="XMLID_72_" x="53.2" y="17.9" width="6" height="6"/>
<rect id="XMLID_71_" x="59.2" y="17.9" class="st0" width="6" height="6"/>
<rect id="XMLID_70_" x="65.1" y="17.9" width="6" height="6"/>
<rect id="XMLID_69_" x="65.1" y="17.9" width="6" height="6"/>
<rect id="XMLID_68_" x="70.9" y="17.9" class="st0" width="6" height="6"/>
<rect id="XMLID_67_" x="76.8" y="17.9" width="6" height="6"/>
<rect id="XMLID_66_" x="82.8" y="17.9" class="st0" width="6" height="6"/>
<rect id="XMLID_65_" x="88.8" y="17.9" width="6" height="6"/>
<rect id="XMLID_64_" x="88.8" y="17.9" width="6" height="6"/>
<rect id="XMLID_63_" x="94.8" y="17.9" class="st0" width="6" height="6"/>
<rect id="XMLID_62_" x="100.7" y="17.9" width="6" height="6"/>
<rect id="XMLID_61_" x="100.7" y="17.9" width="6" height="6"/>
<rect id="XMLID_60_" x="106.5" y="17.9" class="st0" width="6" height="6"/>
<rect id="XMLID_59_" x="112.4" y="17.9" width="6" height="6"/>
<rect id="XMLID_58_" x="118.4" y="17.9" class="st0" width="6" height="6"/>
<rect id="XMLID_57_" x="124.3" y="17.9" width="6" height="6"/>
<rect id="XMLID_224_" x="-0.3" y="24.1" width="6" height="6"/>
<rect id="XMLID_223_" x="5.6" y="24.1" class="st0" width="6" height="6"/>
<rect id="XMLID_222_" x="11.5" y="24.1" width="6" height="6"/>
<rect id="XMLID_221_" x="17.5" y="24.1" class="st0" width="6" height="6"/>
<rect id="XMLID_220_" x="23.4" y="24.1" width="6" height="6"/>
<rect id="XMLID_219_" x="23.4" y="24.1" width="6" height="6"/>
<rect id="XMLID_218_" x="29.2" y="24.1" class="st0" width="6" height="6"/>
<rect id="XMLID_217_" x="35.2" y="24.1" width="6" height="6"/>
<rect id="XMLID_216_" x="41.2" y="24.1" class="st0" width="6" height="6"/>
<rect id="XMLID_215_" x="47.1" y="24.1" width="6" height="6"/>
<rect id="XMLID_214_" x="47.1" y="24.1" width="6" height="6"/>
<rect id="XMLID_213_" x="52.9" y="24.1" class="st0" width="6" height="6"/>
<rect id="XMLID_212_" x="58.8" y="24.1" width="6" height="6"/>
<rect id="XMLID_211_" x="64.8" y="24.1" class="st0" width="6" height="6"/>
<rect id="XMLID_210_" x="70.8" y="24.1" width="6" height="6"/>
<rect id="XMLID_209_" x="70.8" y="24.1" width="6" height="6"/>
<rect id="XMLID_208_" x="76.6" y="24.1" class="st0" width="6" height="6"/>
<rect id="XMLID_207_" x="82.5" y="24.1" width="6" height="6"/>
<rect id="XMLID_206_" x="88.5" y="24.1" class="st0" width="6" height="6"/>
<rect id="XMLID_205_" x="94.4" y="24.1" width="6" height="6"/>
<rect id="XMLID_204_" x="94.4" y="24.1" width="6" height="6"/>
<rect id="XMLID_203_" x="100.4" y="24.1" class="st0" width="6" height="6"/>
<rect id="XMLID_202_" x="106.3" y="24.1" width="6" height="6"/>
<rect id="XMLID_201_" x="106.3" y="24.1" width="6" height="6"/>
<rect id="XMLID_200_" x="112.2" y="24.1" class="st0" width="6" height="6"/>
<rect id="XMLID_199_" x="118.1" y="24.1" width="6" height="6"/>
<rect id="XMLID_198_" x="124.1" y="24.1" class="st0" width="6" height="6"/>
<rect id="XMLID_197_" x="130" y="24.1" width="6" height="6"/>
<rect id="XMLID_196_" x="-6.2" y="30" width="6" height="6"/>
<rect id="XMLID_195_" x="-0.3" y="30" class="st0" width="6" height="6"/>
<rect id="XMLID_194_" x="5.6" y="30" width="6" height="6"/>
<rect id="XMLID_193_" x="11.6" y="30" class="st0" width="6" height="6"/>
<rect id="XMLID_192_" x="17.5" y="30" width="6" height="6"/>
<rect id="XMLID_191_" x="17.5" y="30" width="6" height="6"/>
<rect id="XMLID_190_" x="23.3" y="30" class="st0" width="6" height="6"/>
<rect id="XMLID_189_" x="29.2" y="30" width="6" height="6"/>
<rect id="XMLID_188_" x="35.3" y="30" class="st0" width="6" height="6"/>
<rect id="XMLID_187_" x="41.2" y="30" width="6" height="6"/>
<rect id="XMLID_186_" x="41.2" y="30" width="6" height="6"/>
<rect id="XMLID_185_" x="47" y="30" class="st0" width="6" height="6"/>
<rect id="XMLID_184_" x="52.9" y="30" width="6" height="6"/>
<rect id="XMLID_183_" x="58.9" y="30" class="st0" width="6" height="6"/>
<rect id="XMLID_182_" x="64.8" y="30" width="6" height="6"/>
<rect id="XMLID_181_" x="64.8" y="30" width="6" height="6"/>
<rect id="XMLID_180_" x="70.7" y="30" class="st0" width="6" height="6"/>
<rect id="XMLID_179_" x="76.6" y="30" width="6" height="6"/>
<rect id="XMLID_178_" x="82.6" y="30" class="st0" width="6" height="6"/>
<rect id="XMLID_177_" x="88.5" y="30" width="6" height="6"/>
<rect id="XMLID_176_" x="88.5" y="30" width="6" height="6"/>
<rect id="XMLID_175_" x="94.5" y="30" class="st0" width="6" height="6"/>
<rect id="XMLID_174_" x="100.4" y="30" width="6" height="6"/>
<rect id="XMLID_173_" x="100.4" y="30" width="6" height="6"/>
<rect id="XMLID_172_" x="106.3" y="30" class="st0" width="6" height="6"/>
<rect id="XMLID_171_" x="112.2" y="30" width="6" height="6"/>
<rect id="XMLID_170_" x="118.2" y="30" class="st0" width="6" height="6"/>
<rect id="XMLID_169_" x="124.1" y="30" width="6" height="6"/>
<rect id="XMLID_168_" x="-0.3" y="36.1" width="6" height="6"/>
<rect id="XMLID_167_" x="5.6" y="36.1" class="st0" width="6" height="6"/>
<rect id="XMLID_166_" x="11.5" y="36.1" width="6" height="6"/>
<rect id="XMLID_165_" x="17.5" y="36.1" class="st0" width="6" height="6"/>
<rect id="XMLID_164_" x="23.4" y="36.1" width="6" height="6"/>
<rect id="XMLID_163_" x="23.4" y="36.1" width="6" height="6"/>
<rect id="XMLID_162_" x="29.2" y="36.1" class="st0" width="6" height="6"/>
<rect id="XMLID_161_" x="35.2" y="36.1" width="6" height="6"/>
<rect id="XMLID_160_" x="41.2" y="36.1" class="st0" width="6" height="6"/>
<rect id="XMLID_159_" x="47.1" y="36.1" width="6" height="6"/>
<rect id="XMLID_158_" x="47.1" y="36.1" width="6" height="6"/>
<rect id="XMLID_157_" x="52.9" y="36.1" class="st0" width="6" height="6"/>
<rect id="XMLID_156_" x="58.8" y="36.1" width="6" height="6"/>
<rect id="XMLID_155_" x="64.8" y="36.1" class="st0" width="6" height="6"/>
<rect id="XMLID_154_" x="70.8" y="36.1" width="6" height="6"/>
<rect id="XMLID_153_" x="70.8" y="36.1" width="6" height="6"/>
<rect id="XMLID_152_" x="76.6" y="36.1" class="st0" width="6" height="6"/>
<rect id="XMLID_151_" x="82.5" y="36.1" width="6" height="6"/>
<rect id="XMLID_150_" x="88.5" y="36.1" class="st0" width="6" height="6"/>
<rect id="XMLID_149_" x="94.4" y="36.1" width="6" height="6"/>
<rect id="XMLID_148_" x="94.4" y="36.1" width="6" height="6"/>
<rect id="XMLID_147_" x="100.4" y="36.1" class="st0" width="6" height="6"/>
<rect id="XMLID_146_" x="106.3" y="36.1" width="6" height="6"/>
<rect id="XMLID_145_" x="106.3" y="36.1" width="6" height="6"/>
<rect id="XMLID_144_" x="112.2" y="36.1" class="st0" width="6" height="6"/>
<rect id="XMLID_143_" x="118.1" y="36.1" width="6" height="6"/>
<rect id="XMLID_142_" x="124.1" y="36.1" class="st0" width="6" height="6"/>
<rect id="XMLID_141_" x="130" y="36.1" width="6" height="6"/>
<rect id="XMLID_140_" x="-6.2" y="42" width="6" height="6"/>
<rect id="XMLID_139_" x="-0.3" y="42" class="st0" width="6" height="6"/>
<rect id="XMLID_138_" x="5.6" y="42" width="6" height="6"/>
<rect id="XMLID_137_" x="11.6" y="42" class="st0" width="6" height="6"/>
<rect id="XMLID_136_" x="17.5" y="42" width="6" height="6"/>
<rect id="XMLID_135_" x="17.5" y="42" width="6" height="6"/>
<rect id="XMLID_134_" x="23.3" y="42" class="st0" width="6" height="6"/>
<rect id="XMLID_133_" x="29.2" y="42" width="6" height="6"/>
<rect id="XMLID_132_" x="35.3" y="42" class="st0" width="6" height="6"/>
<rect id="XMLID_131_" x="41.2" y="42" width="6" height="6"/>
<rect id="XMLID_130_" x="41.2" y="42" width="6" height="6"/>
<rect id="XMLID_129_" x="47" y="42" class="st0" width="6" height="6"/>
<rect id="XMLID_128_" x="52.9" y="42" width="6" height="6"/>
<rect id="XMLID_127_" x="58.9" y="42" class="st0" width="6" height="6"/>
<rect id="XMLID_126_" x="64.8" y="42" width="6" height="6"/>
<rect id="XMLID_125_" x="64.8" y="42" width="6" height="6"/>
<rect id="XMLID_124_" x="70.7" y="42" class="st0" width="6" height="6"/>
<rect id="XMLID_123_" x="76.6" y="42" width="6" height="6"/>
<rect id="XMLID_122_" x="82.6" y="42" class="st0" width="6" height="6"/>
<rect id="XMLID_121_" x="88.5" y="42" width="6" height="6"/>
<rect id="XMLID_120_" x="88.5" y="42" width="6" height="6"/>
<rect id="XMLID_119_" x="94.5" y="42" class="st0" width="6" height="6"/>
<rect id="XMLID_118_" x="100.4" y="42" width="6" height="6"/>
<rect id="XMLID_117_" x="100.4" y="42" width="6" height="6"/>
<rect id="XMLID_116_" x="106.3" y="42" class="st0" width="6" height="6"/>
<rect id="XMLID_115_" x="112.2" y="42" width="6" height="6"/>
<rect id="XMLID_114_" x="118.2" y="42" class="st0" width="6" height="6"/>
<rect id="XMLID_113_" x="124.1" y="42" width="6" height="6"/>
<rect id="XMLID_448_" x="-0.3" y="47.7" width="6" height="6"/>
<rect id="XMLID_447_" x="5.5" y="47.7" class="st0" width="6" height="6"/>
<rect id="XMLID_446_" x="11.4" y="47.7" width="6" height="6"/>
<rect id="XMLID_445_" x="17.4" y="47.7" class="st0" width="6" height="6"/>
<rect id="XMLID_444_" x="23.3" y="47.7" width="6" height="6"/>
<rect id="XMLID_443_" x="23.3" y="47.7" width="6" height="6"/>
<rect id="XMLID_442_" x="29.2" y="47.7" class="st0" width="6" height="6"/>
<rect id="XMLID_441_" x="35.1" y="47.7" width="6" height="6"/>
<rect id="XMLID_440_" x="41.1" y="47.7" class="st0" width="6" height="6"/>
<rect id="XMLID_439_" x="47" y="47.7" width="6" height="6"/>
<rect id="XMLID_438_" x="47" y="47.7" width="6" height="6"/>
<rect id="XMLID_437_" x="52.8" y="47.7" class="st0" width="6" height="6"/>
<rect id="XMLID_436_" x="58.8" y="47.7" width="6" height="6"/>
<rect id="XMLID_435_" x="64.8" y="47.7" class="st0" width="6" height="6"/>
<rect id="XMLID_434_" x="70.7" y="47.7" width="6" height="6"/>
<rect id="XMLID_433_" x="70.7" y="47.7" width="6" height="6"/>
<rect id="XMLID_432_" x="76.5" y="47.7" class="st0" width="6" height="6"/>
<rect id="XMLID_431_" x="82.4" y="47.7" width="6" height="6"/>
<rect id="XMLID_430_" x="88.4" y="47.7" class="st0" width="6" height="6"/>
<rect id="XMLID_429_" x="94.3" y="47.7" width="6" height="6"/>
<rect id="XMLID_428_" x="94.3" y="47.7" width="6" height="6"/>
<rect id="XMLID_427_" x="100.3" y="47.7" class="st0" width="6" height="6"/>
<rect id="XMLID_426_" x="106.3" y="47.7" width="6" height="6"/>
<rect id="XMLID_425_" x="106.3" y="47.7" width="6" height="6"/>
<rect id="XMLID_424_" x="112.1" y="47.7" class="st0" width="6" height="6"/>
<rect id="XMLID_423_" x="118" y="47.7" width="6" height="6"/>
<rect id="XMLID_422_" x="124" y="47.7" class="st0" width="6" height="6"/>
<rect id="XMLID_421_" x="129.9" y="47.7" width="6" height="6"/>
<rect id="XMLID_420_" x="-6.3" y="53.6" width="6" height="6"/>
<rect id="XMLID_419_" x="-0.4" y="53.6" class="st0" width="6" height="6"/>
<rect id="XMLID_418_" x="5.5" y="53.6" width="6" height="6"/>
<rect id="XMLID_417_" x="11.5" y="53.6" class="st0" width="6" height="6"/>
<rect id="XMLID_416_" x="17.4" y="53.6" width="6" height="6"/>
<rect id="XMLID_415_" x="17.4" y="53.6" width="6" height="6"/>
<rect id="XMLID_414_" x="23.3" y="53.6" class="st0" width="6" height="6"/>
<rect id="XMLID_413_" x="29.2" y="53.6" width="6" height="6"/>
<rect id="XMLID_412_" x="35.2" y="53.6" class="st0" width="6" height="6"/>
<rect id="XMLID_411_" x="41.1" y="53.6" width="6" height="6"/>
<rect id="XMLID_410_" x="41.1" y="53.6" width="6" height="6"/>
<rect id="XMLID_409_" x="46.9" y="53.6" class="st0" width="6" height="6"/>
<rect id="XMLID_408_" x="52.8" y="53.6" width="6" height="6"/>
<rect id="XMLID_407_" x="58.8" y="53.6" class="st0" width="6" height="6"/>
<rect id="XMLID_406_" x="64.8" y="53.6" width="6" height="6"/>
<rect id="XMLID_405_" x="64.8" y="53.6" width="6" height="6"/>
<rect id="XMLID_404_" x="70.6" y="53.6" class="st0" width="6" height="6"/>
<rect id="XMLID_403_" x="76.5" y="53.6" width="6" height="6"/>
<rect id="XMLID_402_" x="82.5" y="53.6" class="st0" width="6" height="6"/>
<rect id="XMLID_401_" x="88.4" y="53.6" width="6" height="6"/>
<rect id="XMLID_400_" x="88.4" y="53.6" width="6" height="6"/>
<rect id="XMLID_399_" x="94.4" y="53.6" class="st0" width="6" height="6"/>
<rect id="XMLID_398_" x="100.3" y="53.6" width="6" height="6"/>
<rect id="XMLID_397_" x="100.3" y="53.6" width="6" height="6"/>
<rect id="XMLID_396_" x="106.2" y="53.6" class="st0" width="6" height="6"/>
<rect id="XMLID_395_" x="112.1" y="53.6" width="6" height="6"/>
<rect id="XMLID_394_" x="118.1" y="53.6" class="st0" width="6" height="6"/>
<rect id="XMLID_393_" x="124" y="53.6" width="6" height="6"/>
<rect id="XMLID_392_" x="-0.3" y="59.7" width="6" height="6"/>
<rect id="XMLID_391_" x="5.5" y="59.7" class="st0" width="6" height="6"/>
<rect id="XMLID_390_" x="11.4" y="59.7" width="6" height="6"/>
<rect id="XMLID_389_" x="17.4" y="59.7" class="st0" width="6" height="6"/>
<rect id="XMLID_388_" x="23.3" y="59.7" width="6" height="6"/>
<rect id="XMLID_387_" x="23.3" y="59.7" width="6" height="6"/>
<rect id="XMLID_386_" x="29.2" y="59.7" class="st0" width="6" height="6"/>
<rect id="XMLID_385_" x="35.1" y="59.7" width="6" height="6"/>
<rect id="XMLID_384_" x="41.1" y="59.7" class="st0" width="6" height="6"/>
<rect id="XMLID_383_" x="47" y="59.7" width="6" height="6"/>
<rect id="XMLID_382_" x="47" y="59.7" width="6" height="6"/>
<rect id="XMLID_381_" x="52.8" y="59.7" class="st0" width="6" height="6"/>
<rect id="XMLID_380_" x="58.8" y="59.7" width="6" height="6"/>
<rect id="XMLID_379_" x="64.8" y="59.7" class="st0" width="6" height="6"/>
<rect id="XMLID_378_" x="70.7" y="59.7" width="6" height="6"/>
<rect id="XMLID_377_" x="70.7" y="59.7" width="6" height="6"/>
<rect id="XMLID_376_" x="76.5" y="59.7" class="st0" width="6" height="6"/>
<rect id="XMLID_375_" x="82.4" y="59.7" width="6" height="6"/>
<rect id="XMLID_374_" x="88.4" y="59.7" class="st0" width="6" height="6"/>
<rect id="XMLID_373_" x="94.3" y="59.7" width="6" height="6"/>
<rect id="XMLID_372_" x="94.3" y="59.7" width="6" height="6"/>
<rect id="XMLID_371_" x="100.3" y="59.7" class="st0" width="6" height="6"/>
<rect id="XMLID_370_" x="106.3" y="59.7" width="6" height="6"/>
<rect id="XMLID_369_" x="106.3" y="59.7" width="6" height="6"/>
<rect id="XMLID_368_" x="112.1" y="59.7" class="st0" width="6" height="6"/>
<rect id="XMLID_367_" x="118" y="59.7" width="6" height="6"/>
<rect id="XMLID_366_" x="124" y="59.7" class="st0" width="6" height="6"/>
<rect id="XMLID_365_" x="129.9" y="59.7" width="6" height="6"/>
<rect id="XMLID_364_" x="-6.3" y="65.6" width="6" height="6"/>
<rect id="XMLID_363_" x="-0.4" y="65.6" class="st0" width="6" height="6"/>
<rect id="XMLID_362_" x="5.5" y="65.6" width="6" height="6"/>
<rect id="XMLID_361_" x="11.5" y="65.6" class="st0" width="6" height="6"/>
<rect id="XMLID_360_" x="17.4" y="65.6" width="6" height="6"/>
<rect id="XMLID_359_" x="17.4" y="65.6" width="6" height="6"/>
<rect id="XMLID_358_" x="23.3" y="65.6" class="st0" width="6" height="6"/>
<rect id="XMLID_357_" x="29.2" y="65.6" width="6" height="6"/>
<rect id="XMLID_356_" x="35.2" y="65.6" class="st0" width="6" height="6"/>
<rect id="XMLID_355_" x="41.1" y="65.6" width="6" height="6"/>
<rect id="XMLID_354_" x="41.1" y="65.6" width="6" height="6"/>
<rect id="XMLID_353_" x="46.9" y="65.6" class="st0" width="6" height="6"/>
<rect id="XMLID_352_" x="52.8" y="65.6" width="6" height="6"/>
<rect id="XMLID_351_" x="58.8" y="65.6" class="st0" width="6" height="6"/>
<rect id="XMLID_350_" x="64.8" y="65.6" width="6" height="6"/>
<rect id="XMLID_349_" x="64.8" y="65.6" width="6" height="6"/>
<rect id="XMLID_348_" x="70.6" y="65.6" class="st0" width="6" height="6"/>
<rect id="XMLID_347_" x="76.5" y="65.6" width="6" height="6"/>
<rect id="XMLID_346_" x="82.5" y="65.6" class="st0" width="6" height="6"/>
<rect id="XMLID_345_" x="88.4" y="65.6" width="6" height="6"/>
<rect id="XMLID_344_" x="88.4" y="65.6" width="6" height="6"/>
<rect id="XMLID_343_" x="94.4" y="65.6" class="st0" width="6" height="6"/>
<rect id="XMLID_342_" x="100.3" y="65.6" width="6" height="6"/>
<rect id="XMLID_341_" x="100.3" y="65.6" width="6" height="6"/>
<rect id="XMLID_340_" x="106.2" y="65.6" class="st0" width="6" height="6"/>
<rect id="XMLID_339_" x="112.1" y="65.6" width="6" height="6"/>
<rect id="XMLID_338_" x="118.1" y="65.6" class="st0" width="6" height="6"/>
<rect id="XMLID_337_" x="124" y="65.6" width="6" height="6"/>
<rect id="XMLID_336_" x="-0.6" y="71.8" width="6" height="6"/>
<rect id="XMLID_335_" x="5.2" y="71.8" class="st0" width="6" height="6"/>
<rect id="XMLID_334_" x="11.2" y="71.8" width="6" height="6"/>
<rect id="XMLID_333_" x="17.2" y="71.8" class="st0" width="6" height="6"/>
<rect id="XMLID_332_" x="23.1" y="71.8" width="6" height="6"/>
<rect id="XMLID_331_" x="23.1" y="71.8" width="6" height="6"/>
<rect id="XMLID_330_" x="28.9" y="71.8" class="st0" width="6" height="6"/>
<rect id="XMLID_329_" x="34.8" y="71.8" width="6" height="6"/>
<rect id="XMLID_328_" x="40.8" y="71.8" class="st0" width="6" height="6"/>
<rect id="XMLID_327_" x="46.7" y="71.8" width="6" height="6"/>
<rect id="XMLID_326_" x="46.8" y="71.8" width="6" height="6"/>
<rect id="XMLID_325_" x="52.6" y="71.8" class="st0" width="6" height="6"/>
<rect id="XMLID_324_" x="58.5" y="71.8" width="6" height="6"/>
<rect id="XMLID_323_" x="64.5" y="71.8" class="st0" width="6" height="6"/>
<rect id="XMLID_322_" x="70.4" y="71.8" width="6" height="6"/>
<rect id="XMLID_321_" x="70.4" y="71.8" width="6" height="6"/>
<rect id="XMLID_320_" x="76.3" y="71.8" class="st0" width="6" height="6"/>
<rect id="XMLID_319_" x="82.2" y="71.8" width="6" height="6"/>
<rect id="XMLID_318_" x="88.2" y="71.8" class="st0" width="6" height="6"/>
<rect id="XMLID_317_" x="94.1" y="71.8" width="6" height="6"/>
<rect id="XMLID_316_" x="94.1" y="71.8" width="6" height="6"/>
<rect id="XMLID_315_" x="100.1" y="71.8" class="st0" width="6" height="6"/>
<rect id="XMLID_314_" x="106" y="71.8" width="6" height="6"/>
<rect id="XMLID_313_" x="106" y="71.8" width="6" height="6"/>
<rect id="XMLID_312_" x="111.8" y="71.8" class="st0" width="6" height="6"/>
<rect id="XMLID_311_" x="117.8" y="71.8" width="6" height="6"/>
<rect id="XMLID_310_" x="123.8" y="71.8" class="st0" width="6" height="6"/>
<rect id="XMLID_309_" x="129.7" y="71.8" width="6" height="6"/>
<rect id="XMLID_308_" x="-6.5" y="77.7" width="6" height="6"/>
<rect id="XMLID_307_" x="-0.7" y="77.7" class="st0" width="6" height="6"/>
<rect id="XMLID_306_" x="5.2" y="77.7" width="6" height="6"/>
<rect id="XMLID_305_" x="11.2" y="77.7" class="st0" width="6" height="6"/>
<rect id="XMLID_304_" x="17.2" y="77.7" width="6" height="6"/>
<rect id="XMLID_303_" x="17.2" y="77.7" width="6" height="6"/>
<rect id="XMLID_302_" x="23" y="77.7" class="st0" width="6" height="6"/>
<rect id="XMLID_301_" x="28.9" y="77.7" width="6" height="6"/>
<rect id="XMLID_300_" x="34.9" y="77.7" class="st0" width="6" height="6"/>
<rect id="XMLID_299_" x="40.8" y="77.7" width="6" height="6"/>
<rect id="XMLID_298_" x="40.8" y="77.7" width="6" height="6"/>
<rect id="XMLID_297_" x="46.7" y="77.7" class="st0" width="6" height="6"/>
<rect id="XMLID_296_" x="52.6" y="77.7" width="6" height="6"/>
<rect id="XMLID_295_" x="58.6" y="77.7" class="st0" width="6" height="6"/>
<rect id="XMLID_294_" x="64.5" y="77.7" width="6" height="6"/>
<rect id="XMLID_293_" x="64.5" y="77.7" width="6" height="6"/>
<rect id="XMLID_292_" x="70.3" y="77.7" class="st0" width="6" height="6"/>
<rect id="XMLID_291_" x="76.3" y="77.7" width="6" height="6"/>
<rect id="XMLID_290_" x="82.3" y="77.7" class="st0" width="6" height="6"/>
<rect id="XMLID_289_" x="88.2" y="77.7" width="6" height="6"/>
<rect id="XMLID_288_" x="88.2" y="77.7" width="6" height="6"/>
<rect id="XMLID_287_" x="94.2" y="77.7" class="st0" width="6" height="6"/>
<rect id="XMLID_286_" x="100.1" y="77.7" width="6" height="6"/>
<rect id="XMLID_285_" x="100.1" y="77.7" width="6" height="6"/>
<rect id="XMLID_284_" x="105.9" y="77.7" class="st0" width="6" height="6"/>
<rect id="XMLID_283_" x="111.8" y="77.7" width="6" height="6"/>
<rect id="XMLID_282_" x="117.8" y="77.7" class="st0" width="6" height="6"/>
<rect id="XMLID_281_" x="123.8" y="77.7" width="6" height="6"/>
<rect id="XMLID_280_" x="-0.6" y="83.8" width="6" height="6"/>
<rect id="XMLID_279_" x="5.2" y="83.8" class="st0" width="6" height="6"/>
<rect id="XMLID_278_" x="11.2" y="83.8" width="6" height="6"/>
<rect id="XMLID_277_" x="17.2" y="83.8" class="st0" width="6" height="6"/>
<rect id="XMLID_276_" x="23.1" y="83.8" width="6" height="6"/>
<rect id="XMLID_275_" x="23.1" y="83.8" width="6" height="6"/>
<rect id="XMLID_274_" x="28.9" y="83.8" class="st0" width="6" height="6"/>
<rect id="XMLID_273_" x="34.8" y="83.8" width="6" height="6"/>
<rect id="XMLID_272_" x="40.8" y="83.8" class="st0" width="6" height="6"/>
<rect id="XMLID_271_" x="46.7" y="83.8" width="6" height="6"/>
<rect id="XMLID_270_" x="46.8" y="83.8" width="6" height="6"/>
<rect id="XMLID_269_" x="52.6" y="83.8" class="st0" width="6" height="6"/>
<rect id="XMLID_268_" x="58.5" y="83.8" width="6" height="6"/>
<rect id="XMLID_267_" x="64.5" y="83.8" class="st0" width="6" height="6"/>
<rect id="XMLID_266_" x="70.4" y="83.8" width="6" height="6"/>
<rect id="XMLID_265_" x="70.4" y="83.8" width="6" height="6"/>
<rect id="XMLID_264_" x="76.3" y="83.8" class="st0" width="6" height="6"/>
<rect id="XMLID_263_" x="82.2" y="83.8" width="6" height="6"/>
<rect id="XMLID_262_" x="88.2" y="83.8" class="st0" width="6" height="6"/>
<rect id="XMLID_261_" x="94.1" y="83.8" width="6" height="6"/>
<rect id="XMLID_260_" x="94.1" y="83.8" width="6" height="6"/>
<rect id="XMLID_259_" x="100.1" y="83.8" class="st0" width="6" height="6"/>
<rect id="XMLID_258_" x="106" y="83.8" width="6" height="6"/>
<rect id="XMLID_257_" x="106" y="83.8" width="6" height="6"/>
<rect id="XMLID_256_" x="111.8" y="83.8" class="st0" width="6" height="6"/>
<rect id="XMLID_255_" x="117.8" y="83.8" width="6" height="6"/>
<rect id="XMLID_254_" x="123.8" y="83.8" class="st0" width="6" height="6"/>
<rect id="XMLID_253_" x="129.7" y="83.8" width="6" height="6"/>
<rect id="XMLID_252_" x="-6.5" y="89.7" width="6" height="6"/>
<rect id="XMLID_251_" x="-0.7" y="89.7" class="st0" width="6" height="6"/>
<rect id="XMLID_250_" x="5.2" y="89.7" width="6" height="6"/>
<rect id="XMLID_249_" x="11.2" y="89.7" class="st0" width="6" height="6"/>
<rect id="XMLID_248_" x="17.2" y="89.7" width="6" height="6"/>
<rect id="XMLID_247_" x="17.2" y="89.7" width="6" height="6"/>
<rect id="XMLID_246_" x="23" y="89.7" class="st0" width="6" height="6"/>
<rect id="XMLID_245_" x="28.9" y="89.7" width="6" height="6"/>
<rect id="XMLID_244_" x="34.9" y="89.7" class="st0" width="6" height="6"/>
<rect id="XMLID_243_" x="40.8" y="89.7" width="6" height="6"/>
<rect id="XMLID_242_" x="40.8" y="89.7" width="6" height="6"/>
<rect id="XMLID_241_" x="46.7" y="89.7" class="st0" width="6" height="6"/>
<rect id="XMLID_240_" x="52.6" y="89.7" width="6" height="6"/>
<rect id="XMLID_239_" x="58.6" y="89.7" class="st0" width="6" height="6"/>
<rect id="XMLID_238_" x="64.5" y="89.7" width="6" height="6"/>
<rect id="XMLID_237_" x="64.5" y="89.7" width="6" height="6"/>
<rect id="XMLID_236_" x="70.3" y="89.7" class="st0" width="6" height="6"/>
<rect id="XMLID_235_" x="76.3" y="89.7" width="6" height="6"/>
<rect id="XMLID_234_" x="82.3" y="89.7" class="st0" width="6" height="6"/>
<rect id="XMLID_233_" x="88.2" y="89.7" width="6" height="6"/>
<rect id="XMLID_232_" x="88.2" y="89.7" width="6" height="6"/>
<rect id="XMLID_231_" x="94.2" y="89.7" class="st0" width="6" height="6"/>
<rect id="XMLID_230_" x="100.1" y="89.7" width="6" height="6"/>
<rect id="XMLID_229_" x="100.1" y="89.7" width="6" height="6"/>
<rect id="XMLID_228_" x="105.9" y="89.7" class="st0" width="6" height="6"/>
<rect id="XMLID_227_" x="111.8" y="89.7" width="6" height="6"/>
<rect id="XMLID_226_" x="117.8" y="89.7" class="st0" width="6" height="6"/>
<rect id="XMLID_225_" x="123.8" y="89.7" width="6" height="6"/>
<rect id="XMLID_896_" x="-0.8" y="95.4" width="6" height="6"/>
<rect id="XMLID_895_" x="5" y="95.4" class="st0" width="6" height="6"/>
<rect id="XMLID_894_" x="10.9" y="95.4" width="6" height="6"/>
<rect id="XMLID_893_" x="16.9" y="95.4" class="st0" width="6" height="6"/>
<rect id="XMLID_892_" x="22.8" y="95.4" width="6" height="6"/>
<rect id="XMLID_891_" x="22.8" y="95.4" width="6" height="6"/>
<rect id="XMLID_890_" x="28.7" y="95.4" class="st0" width="6" height="6"/>
<rect id="XMLID_889_" x="34.6" y="95.4" width="6" height="6"/>
<rect id="XMLID_888_" x="40.6" y="95.4" class="st0" width="6" height="6"/>
<rect id="XMLID_887_" x="46.5" y="95.4" width="6" height="6"/>
<rect id="XMLID_886_" x="46.5" y="95.4" width="6" height="6"/>
<rect id="XMLID_885_" x="52.3" y="95.4" class="st0" width="6" height="6"/>
<rect id="XMLID_884_" x="58.2" y="95.4" width="6" height="6"/>
<rect id="XMLID_883_" x="64.3" y="95.4" class="st0" width="6" height="6"/>
<rect id="XMLID_882_" x="70.2" y="95.4" width="6" height="6"/>
<rect id="XMLID_881_" x="70.2" y="95.4" width="6" height="6"/>
<rect id="XMLID_880_" x="76" y="95.4" class="st0" width="6" height="6"/>
<rect id="XMLID_879_" x="81.9" y="95.4" width="6" height="6"/>
<rect id="XMLID_878_" x="87.9" y="95.4" class="st0" width="6" height="6"/>
<rect id="XMLID_877_" x="93.8" y="95.4" width="6" height="6"/>
<rect id="XMLID_876_" x="93.8" y="95.4" width="6" height="6"/>
<rect id="XMLID_875_" x="99.8" y="95.4" class="st0" width="6" height="6"/>
<rect id="XMLID_874_" x="105.7" y="95.4" width="6" height="6"/>
<rect id="XMLID_873_" x="105.8" y="95.4" width="6" height="6"/>
<rect id="XMLID_872_" x="111.6" y="95.4" class="st0" width="6" height="6"/>
<rect id="XMLID_871_" x="117.5" y="95.4" width="6" height="6"/>
<rect id="XMLID_870_" x="123.5" y="95.4" class="st0" width="6" height="6"/>
<rect id="XMLID_869_" x="129.4" y="95.4" width="6" height="6"/>
<rect id="XMLID_868_" x="-6.8" y="101.3" width="6" height="6"/>
<rect id="XMLID_867_" x="-0.9" y="101.3" class="st0" width="6" height="6"/>
<rect id="XMLID_866_" x="5" y="101.3" width="6" height="6"/>
<rect id="XMLID_865_" x="11" y="101.3" class="st0" width="6" height="6"/>
<rect id="XMLID_864_" x="16.9" y="101.3" width="6" height="6"/>
<rect id="XMLID_863_" x="16.9" y="101.3" width="6" height="6"/>
<rect id="XMLID_862_" x="22.7" y="101.3" class="st0" width="6" height="6"/>
<rect id="XMLID_861_" x="28.7" y="101.3" width="6" height="6"/>
<rect id="XMLID_860_" x="34.7" y="101.3" class="st0" width="6" height="6"/>
<rect id="XMLID_859_" x="40.6" y="101.3" width="6" height="6"/>
<rect id="XMLID_858_" x="40.6" y="101.3" width="6" height="6"/>
<rect id="XMLID_857_" x="46.4" y="101.3" class="st0" width="6" height="6"/>
<rect id="XMLID_856_" x="52.3" y="101.3" width="6" height="6"/>
<rect id="XMLID_855_" x="58.3" y="101.3" class="st0" width="6" height="6"/>
<rect id="XMLID_854_" x="64.3" y="101.3" width="6" height="6"/>
<rect id="XMLID_853_" x="64.3" y="101.3" width="6" height="6"/>
<rect id="XMLID_852_" x="70.1" y="101.3" class="st0" width="6" height="6"/>
<rect id="XMLID_851_" x="76" y="101.3" width="6" height="6"/>
<rect id="XMLID_850_" x="82" y="101.3" class="st0" width="6" height="6"/>
<rect id="XMLID_849_" x="87.9" y="101.3" width="6" height="6"/>
<rect id="XMLID_848_" x="87.9" y="101.3" width="6" height="6"/>
<rect id="XMLID_847_" x="93.9" y="101.3" class="st0" width="6" height="6"/>
<rect id="XMLID_846_" x="99.8" y="101.3" width="6" height="6"/>
<rect id="XMLID_845_" x="99.8" y="101.3" width="6" height="6"/>
<rect id="XMLID_844_" x="105.7" y="101.3" class="st0" width="6" height="6"/>
<rect id="XMLID_843_" x="111.6" y="101.3" width="6" height="6"/>
<rect id="XMLID_842_" x="117.6" y="101.3" class="st0" width="6" height="6"/>
<rect id="XMLID_841_" x="123.5" y="101.3" width="6" height="6"/>
<rect id="XMLID_840_" x="-0.8" y="107.4" width="6" height="6"/>
<rect id="XMLID_839_" x="5" y="107.4" class="st0" width="6" height="6"/>
<rect id="XMLID_838_" x="10.9" y="107.4" width="6" height="6"/>
<rect id="XMLID_837_" x="16.9" y="107.4" class="st0" width="6" height="6"/>
<rect id="XMLID_836_" x="22.8" y="107.4" width="6" height="6"/>
<rect id="XMLID_835_" x="22.8" y="107.4" width="6" height="6"/>
<rect id="XMLID_834_" x="28.7" y="107.4" class="st0" width="6" height="6"/>
<rect id="XMLID_833_" x="34.6" y="107.4" width="6" height="6"/>
<rect id="XMLID_832_" x="40.6" y="107.4" class="st0" width="6" height="6"/>
<rect id="XMLID_831_" x="46.5" y="107.4" width="6" height="6"/>
<rect id="XMLID_830_" x="46.5" y="107.4" width="6" height="6"/>
<rect id="XMLID_829_" x="52.3" y="107.4" class="st0" width="6" height="6"/>
<rect id="XMLID_828_" x="58.2" y="107.4" width="6" height="6"/>
<rect id="XMLID_827_" x="64.3" y="107.4" class="st0" width="6" height="6"/>
<rect id="XMLID_826_" x="70.2" y="107.4" width="6" height="6"/>
<rect id="XMLID_825_" x="70.2" y="107.4" width="6" height="6"/>
<rect id="XMLID_824_" x="76" y="107.4" class="st0" width="6" height="6"/>
<rect id="XMLID_823_" x="81.9" y="107.4" width="6" height="6"/>
<rect id="XMLID_822_" x="87.9" y="107.4" class="st0" width="6" height="6"/>
<rect id="XMLID_821_" x="93.8" y="107.4" width="6" height="6"/>
<rect id="XMLID_820_" x="93.8" y="107.4" width="6" height="6"/>
<rect id="XMLID_819_" x="99.8" y="107.4" class="st0" width="6" height="6"/>
<rect id="XMLID_818_" x="105.7" y="107.4" width="6" height="6"/>
<rect id="XMLID_817_" x="105.8" y="107.4" width="6" height="6"/>
<rect id="XMLID_816_" x="111.6" y="107.4" class="st0" width="6" height="6"/>
<rect id="XMLID_815_" x="117.5" y="107.4" width="6" height="6"/>
<rect id="XMLID_814_" x="123.5" y="107.4" class="st0" width="6" height="6"/>
<rect id="XMLID_813_" x="129.4" y="107.4" width="6" height="6"/>
<rect id="XMLID_812_" x="-6.8" y="113.3" width="6" height="6"/>
<rect id="XMLID_811_" x="-0.9" y="113.3" class="st0" width="6" height="6"/>
<rect id="XMLID_810_" x="5" y="113.3" width="6" height="6"/>
<rect id="XMLID_809_" x="11" y="113.3" class="st0" width="6" height="6"/>
<rect id="XMLID_808_" x="16.9" y="113.3" width="6" height="6"/>
<rect id="XMLID_807_" x="16.9" y="113.3" width="6" height="6"/>
<rect id="XMLID_806_" x="22.7" y="113.3" class="st0" width="6" height="6"/>
<rect id="XMLID_805_" x="28.7" y="113.3" width="6" height="6"/>
<rect id="XMLID_804_" x="34.7" y="113.3" class="st0" width="6" height="6"/>
<rect id="XMLID_803_" x="40.6" y="113.3" width="6" height="6"/>
<rect id="XMLID_802_" x="40.6" y="113.3" width="6" height="6"/>
<rect id="XMLID_801_" x="46.4" y="113.3" class="st0" width="6" height="6"/>
<rect id="XMLID_800_" x="52.3" y="113.3" width="6" height="6"/>
<rect id="XMLID_799_" x="58.3" y="113.3" class="st0" width="6" height="6"/>
<rect id="XMLID_798_" x="64.3" y="113.3" width="6" height="6"/>
<rect id="XMLID_797_" x="64.3" y="113.3" width="6" height="6"/>
<rect id="XMLID_796_" x="70.1" y="113.3" class="st0" width="6" height="6"/>
<rect id="XMLID_795_" x="76" y="113.3" width="6" height="6"/>
<rect id="XMLID_794_" x="82" y="113.3" class="st0" width="6" height="6"/>
<rect id="XMLID_793_" x="87.9" y="113.3" width="6" height="6"/>
<rect id="XMLID_792_" x="87.9" y="113.3" width="6" height="6"/>
<rect id="XMLID_791_" x="93.9" y="113.3" class="st0" width="6" height="6"/>
<rect id="XMLID_790_" x="99.8" y="113.3" width="6" height="6"/>
<rect id="XMLID_789_" x="99.8" y="113.3" width="6" height="6"/>
<rect id="XMLID_788_" x="105.7" y="113.3" class="st0" width="6" height="6"/>
<rect id="XMLID_787_" x="111.6" y="113.3" width="6" height="6"/>
<rect id="XMLID_786_" x="117.6" y="113.3" class="st0" width="6" height="6"/>
<rect id="XMLID_785_" x="123.5" y="113.3" width="6" height="6"/>
<rect id="XMLID_784_" x="-1.1" y="119.5" width="6" height="6"/>
<rect id="XMLID_783_" x="4.7" y="119.5" class="st0" width="6" height="6"/>
<rect id="XMLID_782_" x="10.7" y="119.5" width="6" height="6"/>
<rect id="XMLID_781_" x="16.7" y="119.5" class="st0" width="6" height="6"/>
<rect id="XMLID_780_" x="22.6" y="119.5" width="6" height="6"/>
<rect id="XMLID_779_" x="22.6" y="119.5" width="6" height="6"/>
<rect id="XMLID_778_" x="28.4" y="119.5" class="st0" width="6" height="6"/>
<rect id="XMLID_777_" x="34.3" y="119.5" width="6" height="6"/>
<rect id="XMLID_776_" x="40.3" y="119.5" class="st0" width="6" height="6"/>
<rect id="XMLID_775_" x="46.2" y="119.5" width="6" height="6"/>
<rect id="XMLID_774_" x="46.3" y="119.5" width="6" height="6"/>
<rect id="XMLID_773_" x="52.1" y="119.5" class="st0" width="6" height="6"/>
<rect id="XMLID_772_" x="58" y="119.5" width="6" height="6"/>
<rect id="XMLID_771_" x="64" y="119.5" class="st0" width="6" height="6"/>
<rect id="XMLID_770_" x="69.9" y="119.5" width="6" height="6"/>
<rect id="XMLID_769_" x="69.9" y="119.5" width="6" height="6"/>
<rect id="XMLID_768_" x="75.8" y="119.5" class="st0" width="6" height="6"/>
<rect id="XMLID_767_" x="81.7" y="119.5" width="6" height="6"/>
<rect id="XMLID_766_" x="87.7" y="119.5" class="st0" width="6" height="6"/>
<rect id="XMLID_765_" x="93.6" y="119.5" width="6" height="6"/>
<rect id="XMLID_764_" x="93.6" y="119.5" width="6" height="6"/>
<rect id="XMLID_763_" x="99.6" y="119.5" class="st0" width="6" height="6"/>
<rect id="XMLID_762_" x="105.5" y="119.5" width="6" height="6"/>
<rect id="XMLID_761_" x="105.5" y="119.5" width="6" height="6"/>
<rect id="XMLID_760_" x="111.3" y="119.5" class="st0" width="6" height="6"/>
<rect id="XMLID_759_" x="117.2" y="119.5" width="6" height="6"/>
<rect id="XMLID_758_" x="123.2" y="119.5" class="st0" width="6" height="6"/>
<rect id="XMLID_757_" x="129.2" y="119.5" width="6" height="6"/>
<rect id="XMLID_756_" x="-7" y="125.4" width="6" height="6"/>
<rect id="XMLID_755_" x="-1.2" y="125.4" class="st0" width="6" height="6"/>
<rect id="XMLID_754_" x="4.7" y="125.4" width="6" height="6"/>
<rect id="XMLID_753_" x="10.7" y="125.4" class="st0" width="6" height="6"/>
<rect id="XMLID_752_" x="16.7" y="125.4" width="6" height="6"/>
<rect id="XMLID_751_" x="16.7" y="125.4" width="6" height="6"/>
<rect id="XMLID_750_" x="22.5" y="125.4" class="st0" width="6" height="6"/>
<rect id="XMLID_749_" x="28.4" y="125.4" width="6" height="6"/>
<rect id="XMLID_748_" x="34.4" y="125.4" class="st0" width="6" height="6"/>
<rect id="XMLID_747_" x="40.3" y="125.4" width="6" height="6"/>
<rect id="XMLID_746_" x="40.3" y="125.4" width="6" height="6"/>
<rect id="XMLID_745_" x="46.2" y="125.4" class="st0" width="6" height="6"/>
<rect id="XMLID_744_" x="52.1" y="125.4" width="6" height="6"/>
<rect id="XMLID_743_" x="58.1" y="125.4" class="st0" width="6" height="6"/>
<rect id="XMLID_742_" x="64" y="125.4" width="6" height="6"/>
<rect id="XMLID_741_" x="64" y="125.4" width="6" height="6"/>
<rect id="XMLID_740_" x="69.8" y="125.4" class="st0" width="6" height="6"/>
<rect id="XMLID_739_" x="75.8" y="125.4" width="6" height="6"/>
<rect id="XMLID_738_" x="81.8" y="125.4" class="st0" width="6" height="6"/>
<rect id="XMLID_737_" x="87.7" y="125.4" width="6" height="6"/>
<rect id="XMLID_736_" x="87.7" y="125.4" width="6" height="6"/>
<rect id="XMLID_735_" x="93.7" y="125.4" class="st0" width="6" height="6"/>
<rect id="XMLID_734_" x="99.6" y="125.4" width="6" height="6"/>
<rect id="XMLID_733_" x="99.6" y="125.4" width="6" height="6"/>
<rect id="XMLID_732_" x="105.4" y="125.4" class="st0" width="6" height="6"/>
<rect id="XMLID_731_" x="111.3" y="125.4" width="6" height="6"/>
<rect id="XMLID_730_" x="117.3" y="125.4" class="st0" width="6" height="6"/>
<rect id="XMLID_729_" x="123.2" y="125.4" width="6" height="6"/>
</svg>
