<?xml version="1.0" encoding="utf-8"?>
<!-- Generator: Adobe Illustrator 19.0.0, SVG Export Plug-In . SVG Version: 6.00 Build 0)  -->
<svg version="1.1" id="analyzers-svg" xmlns="http://www.w3.org/2000/svg" xmlns:xlink="http://www.w3.org/1999/xlink" x="0px" y="0px"
	 viewBox="0 0 64 64" style="enable-background:new 0 0 64 64;" xml:space="preserve">
<style type="text/css">
	.st0{fill:#FFFFFF;stroke:#000000;stroke-miterlimit:10;}
</style>
<rect id="XMLID_4_" x="12.8" y="23.2" class="st0" width="3.1" height="3.1"/>
<rect id="XMLID_2_" x="12.7" y="18.4" class="st0" width="3.1" height="3.1"/>
<rect id="XMLID_3_" x="12.7" y="28.2" class="st0" width="3.1" height="3.1"/>
<rect id="XMLID_8_" x="17.9" y="28.2" class="st0" width="3.1" height="3.1"/>
<rect id="XMLID_7_" x="17.8" y="23.2" class="st0" width="3.1" height="3.1"/>
<rect id="XMLID_6_" x="23" y="28.3" class="st0" width="3.1" height="3.1"/>
<rect id="XMLID_11_" x="12.6" y="42.3" transform="matrix(-0.9999 -1.017819e-002 1.017819e-002 -0.9999 27.8678 87.8765)" class="st0" width="3.1" height="3.1"/>
<rect id="XMLID_10_" x="12.6" y="37.7" transform="matrix(-0.9999 -1.017819e-002 1.017819e-002 -0.9999 28.0116 78.7181)" class="st0" width="3.1" height="3.1"/>
<rect id="XMLID_9_" x="12.7" y="33" transform="matrix(-0.9999 -1.017819e-002 1.017819e-002 -0.9999 28.1374 69.3077)" class="st0" width="3.1" height="3.1"/>
<rect id="XMLID_13_" x="22.9" y="33.1" transform="matrix(-0.9999 -1.017819e-002 1.017819e-002 -0.9999 48.5443 69.5651)" class="st0" width="3.1" height="3.1"/>
<rect id="XMLID_12_" x="17.8" y="37.8" transform="matrix(-0.9999 -1.017819e-002 1.017819e-002 -0.9999 38.2609 78.8536)" class="st0" width="3.1" height="3.1"/>
<rect id="XMLID_5_" x="17.8" y="33.1" transform="matrix(-0.9999 -1.017819e-002 1.017819e-002 -0.9999 38.3867 69.4432)" class="st0" width="3.1" height="3.1"/>
<rect id="XMLID_19_" x="28.1" y="23.4" class="st0" width="3.1" height="3.1"/>
<rect id="XMLID_18_" x="28.1" y="18.5" class="st0" width="3.1" height="3.1"/>
<rect id="XMLID_17_" x="28" y="28.4" class="st0" width="3.1" height="3.1"/>
<rect id="XMLID_16_" x="27.9" y="42.4" transform="matrix(-0.9999 -1.017819e-002 1.017819e-002 -0.9999 58.4907 88.2824)" class="st0" width="3.1" height="3.1"/>
<rect id="XMLID_15_" x="28" y="37.8" transform="matrix(-0.9999 -1.017819e-002 1.017819e-002 -0.9999 58.6345 79.1239)" class="st0" width="3.1" height="3.1"/>
<rect id="XMLID_14_" x="28" y="33.1" transform="matrix(-0.9999 -1.017819e-002 1.017819e-002 -0.9999 58.7603 69.7136)" class="st0" width="3.1" height="3.1"/>
<rect id="XMLID_25_" x="33.3" y="23.4" class="st0" width="3.1" height="3.1"/>
<rect id="XMLID_24_" x="33.2" y="18.5" class="st0" width="3.1" height="3.1"/>
<rect id="XMLID_23_" x="33.2" y="28.4" class="st0" width="3.1" height="3.1"/>
<rect id="XMLID_22_" x="33.1" y="42.5" transform="matrix(-0.9999 -1.017819e-002 1.017819e-002 -0.9999 68.8648 88.4602)" class="st0" width="3.1" height="3.1"/>
<rect id="XMLID_21_" x="33.1" y="37.9" transform="matrix(-0.9999 -1.017819e-002 1.017819e-002 -0.9999 69.0086 79.3017)" class="st0" width="3.1" height="3.1"/>
<rect id="XMLID_20_" x="33.2" y="33.2" transform="matrix(-0.9999 -1.017819e-002 1.017819e-002 -0.9999 69.1344 69.8914)" class="st0" width="3.1" height="3.1"/>
<rect id="XMLID_29_" x="38.5" y="28.4" class="st0" width="3.1" height="3.1"/>
<rect id="XMLID_26_" x="38.4" y="33.1" transform="matrix(-0.9999 -1.017819e-002 1.017819e-002 -0.9999 79.6348 69.8198)" class="st0" width="3.1" height="3.1"/>
<rect id="XMLID_49_" x="43.6" y="23.3" class="st0" width="3.1" height="3.1"/>
<rect id="XMLID_48_" x="43.6" y="18.4" class="st0" width="3.1" height="3.1"/>
<rect id="XMLID_47_" x="43.5" y="28.3" class="st0" width="3.1" height="3.1"/>
<rect id="XMLID_46_" x="43.4" y="42.4" transform="matrix(-0.9999 -1.017819e-002 1.017819e-002 -0.9999 89.4906 88.3151)" class="st0" width="3.1" height="3.1"/>
<rect id="XMLID_45_" x="43.5" y="37.8" transform="matrix(-0.9999 -1.017819e-002 1.017819e-002 -0.9999 89.6344 79.1567)" class="st0" width="3.1" height="3.1"/>
<rect id="XMLID_44_" x="43.5" y="33.1" transform="matrix(-0.9999 -1.017819e-002 1.017819e-002 -0.9999 89.7601 69.7464)" class="st0" width="3.1" height="3.1"/>
<rect id="XMLID_43_" x="48.8" y="23.4" class="st0" width="3.1" height="3.1"/>
<rect id="XMLID_42_" x="48.7" y="18.5" class="st0" width="3.1" height="3.1"/>
<rect id="XMLID_41_" x="48.7" y="28.4" class="st0" width="3.1" height="3.1"/>
<rect id="XMLID_40_" x="48.6" y="42.4" transform="matrix(-0.9999 -1.017819e-002 1.017819e-002 -0.9999 99.8647 88.4929)" class="st0" width="3.1" height="3.1"/>
<rect id="XMLID_39_" x="48.6" y="37.8" transform="matrix(-0.9999 -1.017819e-002 1.017819e-002 -0.9999 100.0085 79.3345)" class="st0" width="3.1" height="3.1"/>
<rect id="XMLID_38_" x="48.7" y="33.1" transform="matrix(-0.9999 -1.017819e-002 1.017819e-002 -0.9999 100.1342 69.9242)" class="st0" width="3.1" height="3.1"/>
<rect id="XMLID_36_" x="43.6" y="13.5" class="st0" width="3.1" height="3.1"/>
<rect id="XMLID_35_" x="54" y="28.3" class="st0" width="3.1" height="3.1"/>
<rect id="XMLID_34_" x="43.4" y="47.1" transform="matrix(-0.9999 -1.017819e-002 1.017819e-002 -0.9999 89.4839 97.8151)" class="st0" width="3.1" height="3.1"/>
<rect id="XMLID_32_" x="53.9" y="33.1" transform="matrix(-0.9999 -1.017819e-002 1.017819e-002 -0.9999 110.6346 69.8526)" class="st0" width="3.1" height="3.1"/>
<rect id="XMLID_28_" x="7.6" y="28.2" class="st0" width="3.1" height="3.1"/>
<rect id="XMLID_27_" x="7.6" y="33" transform="matrix(-0.9999 -1.017819e-002 1.017819e-002 -0.9999 17.9712 69.2143)" class="st0" width="3.1" height="3.1"/>
<rect id="XMLID_31_" x="33.3" y="13.8" class="st0" width="3.1" height="3.1"/>
<rect id="XMLID_30_" x="33.3" y="8.9" class="st0" width="3.1" height="3.1"/>
<rect id="XMLID_37_" x="33" y="51.9" class="st0" width="3.1" height="3.1"/>
<rect id="XMLID_33_" x="33" y="47.2" class="st0" width="3.1" height="3.1"/>
</svg>
