<?xml version="1.0" encoding="utf-8"?>
<!-- Generator: Adobe Illustrator 19.0.0, SVG Export Plug-In . SVG Version: 6.00 Build 0)  -->
<svg version="1.1" id="games-svg" xmlns="http://www.w3.org/2000/svg" xmlns:xlink="http://www.w3.org/1999/xlink" x="0px" y="0px"
	 viewBox="0 0 64 64" style="enable-background:new 0 0 64 64;" xml:space="preserve">
<style type="text/css">
	.st0{fill:#FFFFFF;stroke:#FFFFFF;stroke-miterlimit:10;}
</style>
<circle id="XMLID_2_" class="st0" cx="46.1" cy="25.9" r="3.1"/>
<circle id="XMLID_3_" class="st0" cx="52.3" cy="31.9" r="3.1"/>
<circle id="XMLID_5_" class="st0" cx="46.2" cy="38" r="3.1"/>
<circle id="XMLID_7_" class="st0" cx="40" cy="32.1" r="3.1"/>
<path id="XMLID_9_" class="st0" d="M18.1,41.7L18.1,41.7c-0.9,0-1.6-0.7-1.6-1.6V23.9c0-0.9,0.7-1.6,1.6-1.6h0
	c0.9,0,1.6,0.7,1.6,1.6v16.2C19.6,41,18.9,41.7,18.1,41.7z"/>
<path id="XMLID_10_" class="st0" d="M8.4,32.2L8.4,32.2c0-0.9,0.7-1.6,1.6-1.6l16.2,0c0.9,0,1.6,0.7,1.6,1.6l0,0
	c0,0.9-0.7,1.6-1.6,1.6l-16.2,0C9.1,33.7,8.4,33,8.4,32.2z"/>
</svg>
