<?xml version="1.0" encoding="utf-8"?>
<!-- Generator: Adobe Illustrator 19.0.0, SVG Export Plug-In . SVG Version: 6.00 Build 0)  -->
<svg version="1.1" id="paint-svg" xmlns="http://www.w3.org/2000/svg" xmlns:xlink="http://www.w3.org/1999/xlink" x="0px" y="0px"
	 viewBox="0 0 64 64" style="enable-background:new 0 0 64 64;" xml:space="preserve">
<style type="text/css">
	.st0{fill:#FFFFFF;stroke:#FFFFFF;stroke-miterlimit:10;}
</style>
<rect id="XMLID_1_" x="12.4" y="25.6" class="st0" width="3.1" height="3.1"/>
<rect id="XMLID_2_" x="16.8" y="21.3" class="st0" width="3.1" height="3.1"/>
<rect id="XMLID_3_" x="21.2" y="25.6" class="st0" width="3.1" height="3.1"/>
<rect id="XMLID_8_" x="39.6" y="25.6" class="st0" width="3.1" height="3.1"/>
<rect id="XMLID_7_" x="44" y="21.3" class="st0" width="3.1" height="3.1"/>
<rect id="XMLID_6_" x="48.5" y="25.6" class="st0" width="3.1" height="3.1"/>
<rect id="XMLID_11_" x="34.8" y="39.8" transform="matrix(-0.9999 -1.017819e-002 1.017819e-002 -0.9999 72.3921 83.1031)" class="st0" width="3.1" height="3.1"/>
<rect id="XMLID_10_" x="30.4" y="44.1" transform="matrix(-0.9999 -1.017819e-002 1.017819e-002 -0.9999 63.4458 91.6484)" class="st0" width="3.1" height="3.1"/>
<rect id="XMLID_9_" x="26" y="39.7" transform="matrix(-0.9999 -1.017819e-002 1.017819e-002 -0.9999 54.7351 82.8598)" class="st0" width="3.1" height="3.1"/>
</svg>
